<svg width="53" height="53" fill="none" xmlns="http://www.w3.org/2000/svg"><path fill-rule="evenodd" clip-rule="evenodd" d="M0 26.215C0 40.67 11.76 52.431 26.216 52.431c14.455 0 26.215-11.761 26.215-26.216C52.431 11.76 40.671 0 26.216 0 11.76 0 0 11.76 0 26.215Zm1.896 0c0-13.41 10.91-24.32 24.32-24.32s24.32 10.91 24.32 24.32c0 13.411-10.91 24.321-24.32 24.321s-24.32-10.91-24.32-24.321Z" fill="#fff"/><path d="M26.558 26.002c5.022-1.667 9.36-3.107 9.36-10.96V13h-2.029v2.042c0 6.389-3.171 7.441-7.971 9.035-1.745.579-3.711 1.242-5.538 2.288V13h-2.029v14.772a11.297 11.297 0 0 0-2.322 2.669V13H14v27.607h2.029v-2.042c0-9.068 5.593-10.925 10.529-12.563Z" fill="#fff"/><path d="M37.89 13V15.042c0 9.108-5.605 10.969-10.552 12.61C22.327 29.315 18 30.751 18 38.565v2.042h2.03v-2.042c0-6.349 3.161-7.398 7.947-8.987 1.753-.582 3.727-1.247 5.561-2.301v13.33h2.03v-14.74a11.3 11.3 0 0 0 2.322-2.678v17.418h2.029V13H37.89Z" fill="#fff"/></svg>